<svg width="157" height="32" viewBox="0 0 157 32" fill="none" xmlns="http://www.w3.org/2000/svg">
<path d="M32.0404 15.3265C32.0404 14.6587 31.9691 13.9988 31.8242 13.3468C31.8175 13.2727 31.8169 13.198 31.8029 13.125C31.367 10.8257 30.469 8.72186 29.1189 6.81235C28.3612 5.74191 27.5008 4.76244 26.4849 3.92731C26.418 3.86329 26.3546 3.79533 26.2838 3.73692C23.4718 1.41855 20.2486 0.165577 16.6043 0.0145014C15.5861 -0.0276202 14.5701 0.0173095 13.5654 0.21163C13.4817 0.21837 13.3969 0.218369 13.3149 0.233533C11.1695 0.638461 9.15384 1.38092 7.3325 2.59964C3.43205 5.20893 1.01877 8.81958 0.226885 13.4479C-0.306655 16.5666 0.103328 19.592 1.42482 22.4877C4.42163 29.0542 11.616 33.3888 19.4085 31.5916C25.6559 30.1505 29.6754 26.181 31.5305 20.0452C31.9944 18.5109 32.1196 16.9266 32.0404 15.3265ZM30.3595 19.7083C28.6617 25.174 25.1443 28.9076 19.5562 30.2679C13.3289 31.7831 8.17774 29.7495 4.23404 24.7376C2.19031 22.1407 1.15749 19.1405 1.21814 15.8224C1.29396 11.6973 2.90413 8.21303 5.85713 5.36225C7.85762 3.43084 10.2366 2.15933 12.9622 1.5584C12.9976 1.55053 13.0301 1.53144 13.0644 1.5174C13.0801 1.532 13.0964 1.54323 13.1133 1.55166C13.1284 1.53256 13.1447 1.51627 13.1621 1.50392C13.8327 1.41294 14.5005 1.29612 15.1778 1.25961C19.0299 1.05518 22.4311 2.21212 25.4156 4.63944C26.3776 5.42178 27.233 6.31588 27.9518 7.31332C29.4334 9.37109 30.4494 11.6367 30.7605 14.1847C30.8728 15.1013 30.8874 16.0184 30.8605 16.9384H30.8588C30.8588 16.9384 30.8537 16.9412 30.8509 16.9434C30.8537 16.9474 30.8565 16.9513 30.8599 16.9547C30.7582 17.8847 30.6381 18.8125 30.3595 19.7083Z" fill="white"/>
<path d="M28.4876 15.8247C24.4041 11.7731 20.3183 7.72386 16.2387 3.6684C16.0814 3.51227 16.0039 3.48531 15.8298 3.65942C12.8459 6.64106 9.85418 9.61484 6.86355 12.5903C5.78355 13.6647 4.70187 14.7379 3.62075 15.8118C3.49214 15.8932 3.38656 15.978 3.5747 16.1083C3.74038 16.2661 3.90606 16.4234 4.07174 16.5812C4.14699 16.6632 4.21888 16.7485 4.29751 16.8272C8.12888 20.6383 11.9631 24.4478 15.7894 28.2651C15.9781 28.4533 16.0691 28.4909 16.2808 28.2786C18.4722 26.0804 20.6788 23.8968 22.8787 21.7065C23.7857 20.8034 24.6854 19.8936 25.5885 18.9866C26.5759 18.0178 27.5615 17.0473 28.5522 16.0825C28.6977 15.9404 28.5556 15.8926 28.4876 15.8247ZM16.6436 25.9821V23.4021C16.6425 22.4759 16.6425 21.5493 16.6414 20.6232V20.6024C16.6408 20.1233 16.6408 19.6448 16.6397 19.1663V19.1461C16.6391 18.6142 16.6385 18.0824 16.6374 17.5505V17.5449C16.6374 17.3309 16.6369 17.1175 16.6363 16.9035V16.8805C16.6363 16.7396 16.6425 16.6547 16.8463 16.6553C18.8418 16.6615 20.8372 16.6626 22.8321 16.6632H22.8489C23.8402 16.6632 24.8315 16.6632 25.8227 16.6637C25.8575 16.6637 25.8924 16.6699 25.9901 16.6783C22.8894 19.8088 19.7994 22.8797 16.6436 25.9821ZM16.6459 6.0581C16.7705 6.09573 16.8362 6.18727 16.9115 6.26084C17.9342 7.26277 18.9552 8.26695 19.9774 9.26944C20.0437 9.33459 20.1155 9.39356 20.1846 9.45534C20.2178 9.48791 20.2509 9.51992 20.284 9.55194C20.4037 9.70245 20.5379 9.83892 20.6923 9.95406C20.7109 10.0035 20.7446 10.0377 20.7945 10.0551C20.8198 10.1119 20.8603 10.1529 20.9175 10.1765C21.3758 10.6415 21.8296 11.1104 22.2924 11.571C23.2915 12.5639 24.2951 13.5529 25.2965 14.5431C25.3184 14.5992 25.3571 14.6391 25.4133 14.661C25.4318 14.7138 25.4672 14.7497 25.52 14.7683C25.5419 14.825 25.5807 14.8643 25.6374 14.8862C25.6565 14.9384 25.6919 14.9738 25.7441 14.9929C25.8059 15.071 25.8677 15.1485 25.9283 15.2249C25.8688 15.2996 25.798 15.2675 25.7385 15.2675C22.8096 15.2681 19.8802 15.2642 16.9514 15.2704C16.72 15.2709 16.6357 15.2383 16.6369 14.9733C16.6414 13.4895 16.6419 12.0051 16.6408 10.5213V10.5056C16.6447 10.3017 16.6492 10.1001 16.6593 9.89621C16.6683 9.70582 16.6537 9.51318 16.6402 9.31999V9.30482C16.6391 8.27425 16.6374 7.24424 16.6369 6.21367C16.6369 6.16874 16.6419 6.12324 16.6459 6.0581ZM15.3058 6.162C15.3406 6.22658 15.353 6.30072 15.3496 6.38945C15.3479 6.4327 15.3451 6.49111 15.3592 6.53604V7.16C15.3171 7.22851 15.3491 7.3268 15.3491 7.40093C15.3429 9.94619 15.344 12.4915 15.344 15.0367C15.344 15.0783 15.3463 15.1193 15.3513 15.1586C15.3339 15.2305 15.2834 15.2732 15.1379 15.2726C12.2107 15.2636 9.28357 15.2664 6.35585 15.2664H6.14299C9.20045 12.196 12.2141 9.1852 15.3058 6.162ZM15.3603 25.78C15.3603 25.8047 15.3519 25.8288 15.339 25.9035C12.2253 22.8545 9.17686 19.7914 6.0902 16.6609H7.71665C10.1765 16.6609 12.637 16.662 15.0975 16.6592C15.2626 16.6592 15.367 16.6525 15.3665 16.8833C15.3575 19.8487 15.3609 22.814 15.3603 25.78Z" fill="white"/>
<path d="M11.58 25.5401C10.9724 25.5424 10.3641 25.5463 9.75646 25.5328C7.90423 25.4907 6.57432 24.1468 6.55129 22.2973C6.54399 21.6897 6.54904 21.082 6.5468 20.4738C6.5468 20.3828 6.56477 20.2862 6.48727 20.2104C6.12895 19.861 5.77232 19.5111 5.37301 19.1203C5.42243 20.3036 5.34493 21.4257 5.42019 22.5473C5.57688 24.8729 7.32633 26.5937 9.65368 26.6662C10.7095 26.6988 11.7671 26.6757 12.824 26.6769C12.8656 26.6769 12.9189 26.6926 12.9459 26.6241C12.61 26.3068 12.2691 25.9894 11.9344 25.6654C11.8316 25.5654 11.7182 25.5396 11.58 25.5401Z" fill="white"/>
<path d="M20.5154 6.46415C21.1051 6.45741 21.6943 6.4546 22.2834 6.46639C23.9671 6.49897 25.3611 7.76149 25.5442 9.4368C25.6172 10.1068 25.5576 10.783 25.5678 11.4558C25.5689 11.5479 25.5369 11.6496 25.6003 11.7288C25.9328 12.1388 26.3203 12.4937 26.7185 12.852C26.7039 11.6159 26.8303 10.391 26.6455 9.17621C26.3473 7.21166 24.8214 5.64531 22.9433 5.39763C21.6898 5.23195 20.4267 5.37292 19.1681 5.32013C19.491 5.66215 19.7977 5.97779 20.0931 6.30296C20.2121 6.43382 20.3464 6.46639 20.5154 6.46415Z" fill="white"/>
<path d="M6.40021 11.8259C6.5131 11.7097 6.54848 11.5833 6.54567 11.4238C6.53613 10.8908 6.53556 10.3579 6.5395 9.82488C6.55466 7.91313 7.94916 6.50122 9.8626 6.46583C10.4422 6.45572 11.0218 6.46752 11.6014 6.46696C11.6845 6.46696 11.8002 6.48717 11.8457 6.44281C12.2107 6.08056 12.5629 5.70596 12.9111 5.34203C11.8086 5.34203 10.6949 5.29486 9.58628 5.35214C7.39147 5.46615 5.65831 7.15775 5.4303 9.34582C5.31011 10.5022 5.40895 11.6625 5.42524 12.8554C5.74986 12.5117 6.0711 12.1652 6.40021 11.8259Z" fill="white"/>
<path d="M26.7118 21.023C26.7213 20.403 26.714 19.783 26.714 19.0927C26.358 19.4595 26.0232 19.7498 25.7424 20.0947C25.5801 20.1924 25.5414 20.3395 25.5408 20.5226C25.5397 21.2803 25.6127 22.0435 25.5099 22.7944C25.2976 24.3461 24.0373 25.4649 22.4552 25.53C21.792 25.5576 21.127 25.5357 20.4626 25.5368C20.3615 25.5373 20.2599 25.5194 20.1751 25.6075C19.8353 25.9597 19.491 26.3079 19.1164 26.6903C20.3868 26.6589 21.619 26.7386 22.8495 26.6364C23.0163 26.6229 23.1831 26.5881 23.3465 26.5511C25.1825 26.1327 26.6343 24.4152 26.6562 22.6388C26.6668 22.613 26.6781 22.5883 26.6781 22.5591V22.5119C26.7539 22.0177 26.7045 21.5189 26.7118 21.023Z" fill="white"/>
<path d="M146.876 23.8536V7.46332H150.621V10.195H150.792C151.09 9.24889 151.603 8.51972 152.328 8.00752C153.061 7.48822 153.897 7.22856 154.836 7.22856C155.049 7.22856 155.288 7.23923 155.551 7.26057C155.821 7.2748 156.045 7.2997 156.223 7.33527V10.8886C156.059 10.8317 155.8 10.7819 155.444 10.7392C155.096 10.6894 154.758 10.6645 154.43 10.6645C153.726 10.6645 153.093 10.8175 152.531 11.1234C151.976 11.4222 151.539 11.8383 151.219 12.3719C150.898 12.9054 150.738 13.5207 150.738 14.2179V23.8536H146.876Z" fill="white"/>
<path d="M136.92 24.1737C135.277 24.1737 133.858 23.8322 132.663 23.1493C131.475 22.4593 130.561 21.4847 129.92 20.2255C129.28 18.9593 128.96 17.4689 128.96 15.7545C128.96 14.0685 129.28 12.5888 129.92 11.3155C130.568 10.035 131.471 9.03903 132.631 8.32765C133.79 7.60915 135.153 7.24991 136.718 7.24991C137.728 7.24991 138.681 7.41352 139.577 7.74076C140.481 8.06088 141.278 8.55885 141.968 9.23466C142.665 9.91047 143.213 10.7712 143.611 11.817C144.009 12.8556 144.209 14.0934 144.209 15.5304V16.7148H130.774V14.1112H140.506C140.499 13.3713 140.339 12.7133 140.026 12.1371C139.713 11.5538 139.275 11.0949 138.713 10.7606C138.158 10.4262 137.511 10.2591 136.771 10.2591C135.981 10.2591 135.288 10.4511 134.69 10.8353C134.093 11.2123 133.627 11.7103 133.292 12.3292C132.965 12.941 132.798 13.6132 132.791 14.3459V16.6188C132.791 17.5721 132.965 18.3902 133.314 19.0731C133.662 19.7489 134.15 20.2682 134.776 20.631C135.402 20.9867 136.134 21.1645 136.974 21.1645C137.536 21.1645 138.044 21.0863 138.5 20.9298C138.955 20.7662 139.35 20.5279 139.684 20.2148C140.019 19.9018 140.271 19.5141 140.442 19.0517L144.049 19.4572C143.821 20.4105 143.387 21.2428 142.747 21.9542C142.114 22.6584 141.303 23.2062 140.314 23.5975C139.325 23.9816 138.194 24.1737 136.92 24.1737Z" fill="white"/>
<path d="M123.93 24.0883C123.282 24.0883 122.727 23.8607 122.265 23.4054C121.803 22.9501 121.575 22.3952 121.582 21.7408C121.575 21.1005 121.803 20.5528 122.265 20.0975C122.727 19.6422 123.282 19.4145 123.93 19.4145C124.556 19.4145 125.1 19.6422 125.562 20.0975C126.032 20.5528 126.27 21.1005 126.277 21.7408C126.27 22.1747 126.156 22.5695 125.936 22.9252C125.722 23.2809 125.438 23.5655 125.082 23.7789C124.733 23.9852 124.349 24.0883 123.93 24.0883Z" fill="white"/>
<path d="M107.703 14.2499V23.8536H103.84V7.46332H107.532V10.2484H107.724C108.101 9.3307 108.702 8.60153 109.528 8.06088C110.36 7.52023 111.388 7.24991 112.611 7.24991C113.742 7.24991 114.728 7.49178 115.567 7.97551C116.414 8.45925 117.068 9.15997 117.531 10.0776C118 10.9953 118.231 12.1086 118.224 13.4176V23.8536H114.361V14.0151C114.361 12.9196 114.077 12.0624 113.508 11.4435C112.946 10.8246 112.167 10.5151 111.171 10.5151C110.495 10.5151 109.894 10.6645 109.367 10.9633C108.848 11.255 108.439 11.6783 108.14 12.2331C107.849 12.788 107.703 13.4603 107.703 14.2499Z" fill="white"/>
<path d="M89.9928 14.2499V23.8536H86.13V7.46332H89.8221V10.2484H90.0142C90.3912 9.3307 90.9923 8.60153 91.8175 8.06088C92.6498 7.52023 93.6778 7.24991 94.9014 7.24991C96.0325 7.24991 97.0177 7.49178 97.8572 7.97551C98.7037 8.45925 99.3582 9.15997 99.8206 10.0776C100.29 10.9953 100.521 12.1086 100.514 13.4176V23.8536H96.6514V14.0151C96.6514 12.9196 96.3668 12.0624 95.7977 11.4435C95.2357 10.8246 94.4568 10.5151 93.4608 10.5151C92.785 10.5151 92.1839 10.6645 91.6575 10.9633C91.1382 11.255 90.7291 11.6783 90.4303 12.2331C90.1387 12.788 89.9928 13.4603 89.9928 14.2499Z" fill="white"/>
<path d="M74.1929 24.1844C73.1543 24.1844 72.2188 23.9994 71.3865 23.6295C70.5613 23.2524 69.9068 22.6976 69.4231 21.9648C68.9465 21.2321 68.7081 20.3287 68.7081 19.2545C68.7081 18.3297 68.8789 17.5649 69.2203 16.9603C69.5618 16.3556 70.0277 15.8719 70.6182 15.5091C71.2086 15.1462 71.8738 14.8724 72.6136 14.6874C73.3606 14.4953 74.1324 14.3566 74.9292 14.2712C75.8895 14.1717 76.6685 14.0827 77.2661 14.0045C77.8636 13.9191 78.2976 13.7911 78.5679 13.6203C78.8453 13.4425 78.9841 13.1686 78.9841 12.7987V12.7347C78.9841 11.9308 78.7457 11.3083 78.2691 10.8673C77.7925 10.4262 77.106 10.2057 76.2097 10.2057C75.2635 10.2057 74.513 10.412 73.9581 10.8246C73.4104 11.2372 73.0405 11.7245 72.8484 12.2865L69.2417 11.7743C69.5262 10.7784 69.9957 9.94604 70.6502 9.27734C71.3047 8.60153 72.105 8.09645 73.0511 7.7621C73.9973 7.42064 75.043 7.24991 76.1883 7.24991C76.978 7.24991 77.764 7.34238 78.5466 7.52734C79.3291 7.7123 80.044 8.0182 80.6914 8.44503C81.3387 8.86474 81.858 9.4374 82.2493 10.163C82.6477 10.8886 82.8469 11.7956 82.8469 12.8841V23.8536H79.1334V21.602H79.0054C78.7706 22.0573 78.4398 22.4841 78.013 22.8825C77.5933 23.2738 77.0633 23.5903 76.4231 23.8322C75.7899 24.067 75.0466 24.1844 74.1929 24.1844ZM75.1959 21.3459C75.9714 21.3459 76.6436 21.193 77.2127 20.8871C77.7818 20.5741 78.2193 20.1615 78.5252 19.6493C78.8382 19.1371 78.9947 18.5787 78.9947 17.974V16.0426C78.8738 16.1422 78.6675 16.2347 78.3758 16.32C78.0913 16.4054 77.7711 16.4801 77.4155 16.5441C77.0598 16.6081 76.7076 16.665 76.3591 16.7148C76.0105 16.7646 75.7081 16.8073 75.452 16.8429C74.8758 16.9211 74.3601 17.0492 73.9048 17.227C73.4495 17.4049 73.0903 17.6539 72.827 17.974C72.5638 18.287 72.4322 18.6925 72.4322 19.1905C72.4322 19.9018 72.6919 20.4389 73.2112 20.8017C73.7305 21.1645 74.3921 21.3459 75.1959 21.3459Z" fill="white"/>
<path d="M66.1052 1.99991V23.8536H62.2424V1.99991H66.1052Z" fill="white"/>
<path d="M44.0629 29.9999V7.46332H47.8617V10.1737H48.0858C48.285 9.77531 48.566 9.35204 48.9288 8.90387C49.2916 8.44858 49.7824 8.06088 50.4013 7.74076C51.0202 7.41352 51.8099 7.24991 52.7702 7.24991C54.0365 7.24991 55.1783 7.57358 56.1955 8.22094C57.2199 8.86118 58.0309 9.81088 58.6285 11.07C59.2331 12.3221 59.5355 13.8586 59.5355 15.6798C59.5355 17.4796 59.2402 19.0091 58.6498 20.2682C58.0594 21.5273 57.2555 22.4877 56.2382 23.1493C55.2209 23.8109 54.0685 24.1417 52.7809 24.1417C51.8419 24.1417 51.0629 23.9852 50.444 23.6722C49.8251 23.3591 49.3271 22.9821 48.9501 22.5411C48.5802 22.0929 48.2921 21.6696 48.0858 21.2712H47.9257V29.9999H44.0629ZM47.851 15.6584C47.851 16.7184 48.0004 17.6468 48.2992 18.4435C48.6051 19.2402 49.0426 19.8627 49.6117 20.3109C50.1879 20.7519 50.8851 20.9725 51.7032 20.9725C52.5568 20.9725 53.2718 20.7448 53.848 20.2895C54.4242 19.8271 54.8581 19.1976 55.1498 18.4008C55.4486 17.597 55.598 16.6828 55.598 15.6584C55.598 14.6412 55.4521 13.7377 55.1605 12.9481C54.8688 12.1584 54.4349 11.5395 53.8586 11.0914C53.2824 10.6432 52.5639 10.4191 51.7032 10.4191C50.878 10.4191 50.1772 10.6361 49.601 11.07C49.0248 11.504 48.5873 12.1122 48.2885 12.8947C47.9969 13.6772 47.851 14.5985 47.851 15.6584Z" fill="white"/>
</svg>
